# xmcd
#
# Track frame offsets:
#	150
#	13080
#	28550
#	43473
#	56273
#	71395
#	93550
#	107495
#	118945
#	131655
#	144628
#	159063
#	170273
#	185735
#	201345
#	212908
#	225715
#	239590
#
# Disc length: 3404 seconds
#
# Revision: 1
# Processed by: cddbd v1.4PL0 Copyright (c) Steve Scherf et al.
# Submitted via: audiograbber 1.81.03
#
DISCID=050d4a12
DTITLE=Glenn Miller and His Orchestra - The Swing Years
DYEAR=1900
DGENRE=Grand Band
TTITLE0=Wishing (Will Make It So)
TTITLE1=Moonlight Serenade
TTITLE2=Pensylvania
TTITLE3=Blueberry Hill
TTITLE4=American Patrol
TTITLE5=Anvil Chorus
TTITLE6=Don't Sit Under The Apple Tree
TTITLE7=The Woodpecker Song
TTITLE8=Johnson Rag
TTITLE9=Moonlight Cocktail
TTITLE10=My Melancholy Baby
TTITLE11=Sun Valley Jump
TTITLE12=Sunrise Serenade
TTITLE13=Serenade In Blue
TTITLE14=The Jumpins' Jive
TTITLE15=Happy In Love
TTITLE16=That Old Black Magic
TTITLE17=Chattanooga Choo Choo
EXTD=
EXTT0=
EXTT1=
EXTT2=
EXTT3=
EXTT4=
EXTT5=
EXTT6=
EXTT7=
EXTT8=
EXTT9=
EXTT10=
EXTT11=
EXTT12=
EXTT13=
EXTT14=
EXTT15=
EXTT16=
EXTT17=
PLAYORDER=
